<?xml version="1.0" encoding="utf-8"?>
<svg viewBox="0 0 205 500" xmlns="http://www.w3.org/2000/svg">
  <defs>
    <clipPath id="clip0_67_227">
      <rect width="1080" height="490" fill="white" transform="matrix(0 -1 1 0 0 1080)"/>
    </clipPath>
  </defs>
  <g clip-path="url(#clip0_67_227)" transform="matrix(0.46416398882865906, 0, 0, 0.46416398882865906, -22.39529387393975, 0.18767399821524577)" style="">
    <path d="M 49 1077.846 L 57.2 1041.846 C 65 1005.846 82 933.846 114.3 861.846 C 147 789.846 196 717.846 212.3 645.846 C 229 573.846 212 501.846 171.5 429.846 C 131 357.846 65 285.846 57.2 213.846 C 49 141.846 98 69.846 106.2 -2.154 C 114 -74.154 82 -146.154 73.5 -218.154 C 65 -290.154 82 -362.154 106.2 -434.154 C 131 -506.154 163 -578.154 204.2 -650.154 C 245 -722.154 294 -794.154 318.5 -866.154 C 343 -938.154 343 -1010.154 310.3 -1082.154 C 278 -1154.154 212 -1226.154 228.7 -1298.154 C 245 -1370.154 343 -1442.154 343 -1514.154 C 343 -1586.154 245 -1658.154 171.5 -1730.154 C 98 -1802.154 49 -1874.154 65.3 -1946.154 C 82 -2018.154 163 -2090.154 236.8 -2162.154 C 310 -2234.154 376 -2306.154 343 -2378.154 C 310 -2450.154 180 -2522.154 114.3 -2594.154 C 49 -2666.154 49 -2738.154 40.8 -2810.154 C 33 -2882.154 16 -2954.154 24.5 -3026.154 C 33 -3098.154 65 -3170.154 114.3 -3242.154 C 163 -3314.154 229 -3386.154 277.7 -3458.154 C 327 -3530.154 359 -3602.154 383.8 -3674.154 C 408 -3746.154 425 -3818.154 383.8 -3890.154 C 343 -3962.154 245 -4034.154 196 -4070.154 L 147 -4106.154 L 490 -4106.154 L 490 -4070.154 C 490 -4034.154 490 -3962.154 490 -3890.154 C 490 -3818.154 490 -3746.154 490 -3674.154 C 490 -3602.154 490 -3530.154 490 -3458.154 C 490 -3386.154 490 -3314.154 490 -3242.154 C 490 -3170.154 490 -3098.154 490 -3026.154 C 490 -2954.154 490 -2882.154 490 -2810.154 C 490 -2738.154 490 -2666.154 490 -2594.154 C 490 -2522.154 490 -2450.154 490 -2378.154 C 490 -2306.154 490 -2234.154 490 -2162.154 C 490 -2090.154 490 -2018.154 490 -1946.154 C 490 -1874.154 490 -1802.154 490 -1730.154 C 490 -1658.154 490 -1586.154 490 -1514.154 C 490 -1442.154 490 -1370.154 490 -1298.154 C 490 -1226.154 490 -1154.154 490 -1082.154 C 490 -1010.154 490 -938.154 490 -866.154 C 490 -794.154 490 -722.154 490 -650.154 C 490 -578.154 490 -506.154 490 -434.154 C 490 -362.154 490 -290.154 490 -218.154 C 490 -146.154 490 -74.154 490 -2.154 C 490 69.846 490 141.846 490 213.846 C 490 285.846 490 357.846 490 429.846 C 490 501.846 490 573.846 490 645.846 C 490 717.846 490 789.846 490 861.846 C 490 933.846 490 1005.846 490 1041.846 L 490 1077.846 L 49 1077.846 Z" fill="#A9BCD0"/>
  </g>
</svg>