<?xml version="1.0" encoding="utf-8"?>
<svg viewBox="396.629 266.105 26.062 52.313" xmlns="http://www.w3.org/2000/svg">
  <path d="M 398.598 295.918 L 401.785 295.918 C 402.066 295.918 402.348 296.199 402.348 296.48 L 402.348 316.543 C 402.348 317.574 403.191 318.418 404.223 318.418 L 411.535 318.418 C 412.566 318.418 413.41 317.574 413.41 316.543 L 413.41 296.48 C 413.41 296.199 413.691 295.918 413.973 295.918 L 419.223 295.918 C 420.16 295.918 421.004 295.261 421.098 294.324 L 422.316 287.012 C 422.504 285.887 421.566 284.762 420.441 284.762 L 414.254 284.762 C 413.785 284.762 413.41 284.387 413.41 283.918 L 413.41 279.23 C 413.41 278.012 414.066 277.355 415.285 277.355 L 420.816 277.355 C 421.848 277.355 422.691 276.512 422.691 275.48 L 422.691 267.98 C 422.691 266.949 421.848 266.105 420.816 266.105 L 414.16 266.105 C 401.973 266.105 402.254 275.949 402.254 277.355 L 402.254 284.199 C 402.254 284.48 401.973 284.762 401.691 284.762 L 398.504 284.762 C 397.473 284.762 396.629 285.605 396.629 286.637 L 396.629 293.949 C 396.723 295.074 397.566 295.918 398.598 295.918 Z" fill="#0072FF" transform="matrix(1.0000000000000002, 0, 0, 1, 0, 0)"/>
</svg>