<?xml version="1.0" encoding="utf-8"?>
<svg viewBox="348.861 176.2634 48 48" xmlns="http://www.w3.org/2000/svg">
  <defs>
    <clipPath id="clip0_30_965">
      <rect width="48" height="48" fill="white"/>
    </clipPath>
    <linearGradient id="paint0_linear_30_965" x1="0" y1="24" x2="48" y2="24" gradientUnits="userSpaceOnUse">
      <stop stop-color="white" stop-opacity="0.2"/>
      <stop offset="1" stop-color="white" stop-opacity="0"/>
    </linearGradient>
  </defs>
  <g clip-path="url(#clip0_30_965)" transform="matrix(1.0000000000000002, 0, 0, 1, 348.8609875167574, 176.2633794747438)">
    <path d="M23.9999 10C27.2334 10 30.2024 11.1071 32.5725 12.9481L39.8468 6.00818C35.6174 2.27991 30.0812 0 23.9999 0C14.7847 0 6.79321 5.19983 2.77148 12.8197L10.8604 19.2056C12.8198 13.8387 17.9548 10 23.9999 10Z" fill="#F44336"/>
    <path d="M47.7921 27.0037C47.9171 26.0204 48 25.0173 48 24C48 22.2843 47.8126 20.6136 47.4705 19H24V29H36.9724C35.923 31.7275 34.0544 34.0355 31.676 35.6389L39.7949 42.0486C44.0988 38.2709 47.0439 32.9807 47.7921 27.0037Z" fill="#2196F3"/>
    <path d="M10 24C10 22.3131 10.3137 20.7032 10.8605 19.2056L2.77161 12.8197C1.00867 16.16 0 19.9603 0 24C0 27.9945 0.990112 31.7527 2.71643 35.0659L10.8156 28.6719C10.2969 27.2089 10 25.6409 10 24Z" fill="#FFC107"/>
    <path d="M23.9999 38C17.9088 38 12.7407 34.103 10.8154 28.6719L2.71631 35.0659C6.71838 42.7469 14.7395 48 23.9999 48C30.0554 48 35.5774 45.7504 39.7948 42.0486L31.6759 35.6389C29.4823 37.1178 26.8567 38 23.9999 38Z" fill="#00B060"/>
    <path opacity="0.1" d="M24.0001 47.5C16.9368 47.5 10.5856 44.5857 6.09521 39.9426C10.4908 44.8756 16.873 48 24.0001 48C31.0613 48 37.3906 44.9373 41.7764 40.0815C37.2993 44.6493 30.9963 47.5 24.0001 47.5Z" fill="black"/>
    <path opacity="0.1" d="M24 28.5V29H36.9724L37.175 28.5H24Z" fill="black"/>
    <path d="M47.9889 24.2941C47.9905 24.1956 48 24.0988 48 24C48 23.972 47.9956 23.9451 47.9955 23.9171C47.9941 24.0431 47.9878 24.1676 47.9889 24.2941Z" fill="#E6E6E6"/>
    <path opacity="0.2" d="M24 19V19.5H47.5711C47.5397 19.335 47.5053 19.1638 47.4705 19H24Z" fill="white"/>
    <path d="M47.4705 19H24V29H36.9724C34.9551 34.2432 29.9543 38 24 38C16.2681 38 10 31.7319 10 24C10 16.2679 16.2681 10 24 10C26.8037 10 29.3878 10.8613 31.577 12.2814C31.9121 12.4991 32.2578 12.7036 32.5726 12.9481L39.8469 6.00818L39.6829 5.88196C35.4739 2.23413 30.0071 0 24 0C10.7451 0 0 10.7451 0 24C0 37.2548 10.7451 48 24 48C36.2354 48 46.3109 38.8375 47.7921 27.0037C47.9171 26.0204 48 25.0173 48 24C48 22.2843 47.8126 20.6136 47.4705 19Z" fill="url(#paint0_linear_30_965)"/>
    <path opacity="0.1" d="M31.577 11.7814C29.3878 10.3613 26.8037 9.5 24 9.5C16.2681 9.5 10 15.7679 10 23.5C10 23.5844 10.0011 23.6503 10.0026 23.7344C10.1375 16.119 16.3524 10 24 10C26.8037 10 29.3878 10.8613 31.577 12.2814C31.9121 12.4991 32.2578 12.7036 32.5726 12.9481L39.8469 6.00818L32.5726 12.4481C32.2578 12.2036 31.9121 11.9991 31.577 11.7814Z" fill="black"/>
    <path opacity="0.2" d="M24 0.5C29.9501 0.5 35.3658 2.69678 39.5586 6.2832L39.8469 6.00818L39.6269 5.81655C35.4179 2.16872 30.0071 0 24 0C10.7451 0 0 10.7451 0 24C0 24.0844 0.0117188 24.1658 0.0125732 24.25C0.148071 11.1117 10.8295 0.5 24 0.5Z" fill="white"/>
  </g>
</svg>