<?xml version="1.0" encoding="utf-8"?>
<svg viewBox="-0.0726 0.4392 501.4062 162.7717" xmlns="http://www.w3.org/2000/svg">
  <defs>
    <clipPath id="clip0_30_207">
      <rect width="1944" height="661" fill="white" transform="matrix(-1 0 0 -1 1920 661)"/>
    </clipPath>
  </defs>
  <g clip-path="url(#clip0_30_207)" transform="matrix(0.25792500376701355, 0, 0, 0.25792500376701355, 6.117593679071831, 0.43921502805852697)" style="">
    <path d="M2052.2 594.9L1987.4 583.838C1922.6 573.316 1793 550.384 1663.4 506.812C1533.8 462.7 1404.2 396.6 1274.6 374.612C1145 352.084 1015.4 375.016 885.8 429.65C756.2 484.284 626.6 573.316 497 583.838C367.4 594.9 237.8 528.8 108.2 517.738C-21.3999 507.216 -151 550.384 -280.6 561.85C-410.2 573.316 -539.8 550.384 -669.4 517.738C-799 484.284 -928.6 441.116 -1058.2 385.538C-1187.8 330.5 -1317.4 264.4 -1447 231.35C-1576.6 198.3 -1706.2 198.3 -1835.8 242.412C-1965.4 285.984 -2095 375.016 -2224.6 352.488C-2354.2 330.5 -2483.8 198.3 -2613.4 198.3C-2743 198.3 -2872.6 330.5 -3002.2 429.65C-3131.8 528.8 -3261.4 594.9 -3391 572.912C-3520.6 550.384 -3650.2 441.116 -3779.8 341.562C-3909.4 242.816 -4039 153.784 -4168.6 198.3C-4298.2 242.816 -4427.8 418.184 -4557.4 506.812C-4687 594.9 -4816.6 594.9 -4946.2 605.962C-5075.8 616.484 -5205.4 639.416 -5335 627.95C-5464.6 616.484 -5594.2 573.316 -5723.8 506.812C-5853.4 441.116 -5983 352.084 -6112.6 286.388C-6242.2 219.884 -6371.8 176.716 -6501.4 143.262C-6631 110.616 -6760.6 87.6837 -6890.2 143.262C-7019.8 198.3 -7149.4 330.5 -7214.2 396.6L-7279 462.7V0H-7214.2C-7149.4 0 -7019.8 0 -6890.2 0C-6760.6 0 -6631 0 -6501.4 0C-6371.8 0 -6242.2 0 -6112.6 0C-5983 0 -5853.4 0 -5723.8 0C-5594.2 0 -5464.6 0 -5335 0C-5205.4 0 -5075.8 0 -4946.2 0C-4816.6 0 -4687 0 -4557.4 0C-4427.8 0 -4298.2 0 -4168.6 0C-4039 0 -3909.4 0 -3779.8 0C-3650.2 0 -3520.6 0 -3391 0C-3261.4 0 -3131.8 0 -3002.2 0C-2872.6 0 -2743 0 -2613.4 0C-2483.8 0 -2354.2 0 -2224.6 0C-2095 0 -1965.4 0 -1835.8 0C-1706.2 0 -1576.6 0 -1447 0C-1317.4 0 -1187.8 0 -1058.2 0C-928.6 0 -799 0 -669.4 0C-539.8 0 -410.2 0 -280.6 0C-151 0 -21.3999 0 108.2 0C237.8 0 367.4 0 497 0C626.6 0 756.2 0 885.8 0C1015.4 0 1145 0 1274.6 0C1404.2 0 1533.8 0 1663.4 0C1793 0 1922.6 0 1987.4 0H2052.2V594.9Z" fill="#A9BCD0"/>
  </g>
</svg>